#!OML:ASF E:\motion texture\Top Level 1\Subject 1\Session 1\male.ASF
:FULLY-SPECIFIED
:DEGREES
513
root -24.3762 17.8056 3.05659 152.477 -82.0138 -146.452
lowerback -0.649217 -1.95633 2.17374
upperback -1.98191 -2.63269 3.45602
thorax -1.60442 -1.35311 2.35096
lowerneck -11.59 -9.92475 -11.484
upperneck 8.21315 -12.5633 9.14421
head 5.67051 -5.96648 3.53986
rclavicle -8.7838e-015 1.39149e-014
rhumerus -13.5587 8.75016 -78.9059
rradius 86.4577
rwrist 15.4614
rhand -23.2021 -23.3699
rfingers 7.12502
rthumb 3.24793 -413.325
lclavicle -8.7838e-015 1.39149e-014
lhumerus -23.8136 -24.6471 101.197
lradius 65.1669
lwrist -4.22755
lhand -13.2588 32.2705
lfingers 7.12502
lthumb 12.8437 61.8554
rfemur -11.9026 0.534842 22.7029
rtibia 50.376
rfoot 1.33327 -14.91
rtoes -6.27396
lfemur -23.4546 -2.35414 -14.1831
ltibia 22.8206
lfoot -4.81565 4.08765
ltoes -0.93165
514
root -24.5279 17.8095 3.06577 153.101 -82.2756 -147.236
lowerback -0.589695 -2.0775 1.90313
upperback -1.95851 -2.79153 3.44557
thorax -1.59743 -1.42756 2.49413
lowerneck -11.5385 -9.88352 -11.4498
upperneck 8.16209 -12.5115 9.11775
head 5.63672 -5.94366 3.53578
rclavicle -6.67171e-015 -1.98785e-015
rhumerus -13.3301 9.09686 -78.9832
rradius 87.0996
rwrist 15.7424
rhand -23.3951 -23.2816
rfingers 7.12502
rthumb 3.06155 -413.239
lclavicle -6.67171e-015 -1.98785e-015
lhumerus -22.8386 -25.6091 101.334
lradius 65.4243
lwrist -3.94292
lhand -13.2581 32.3148
lfingers 7.12502
lthumb 12.8444 61.8996
rfemur -12.8446 0.264899 22.3556
rtibia 51.6909
rfoot 1.87334 -15.0818
rtoes -5.50993
lfemur -22.8589 -2.50813 -14.6742
ltibia 22.995
lfoot -5.09863 3.94611
ltoes -0.571553
515
root -24.6789 17.8138 3.07491 153.748 -82.5316 -148.039
lowerback -0.531024 -2.19937 1.63808
upperback -1.93698 -2.95179 3.44083
thorax -1.59047 -1.50297 2.64026
lowerneck -11.4887 -9.83991 -11.4122
upperneck 8.10861 -12.4561 9.08702
head 5.60161 -5.91918 3.53021
rclavicle -1.74682e-014 -1.35174e-014
rhumerus -13.0513 9.45119 -79.0359
rradius 87.7135
rwrist 16.0211
rhand -23.5893 -23.2015
rfingers 7.12502
rthumb 2.87396 -413.162
lclavicle -1.74682e-014 -1.35174e-014
lhumerus -21.8208 -26.5657 101.434
lradius 65.684
lwrist -3.65556
lhand -13.2549 32.3382
lfingers 7.12502
lthumb 12.8475 61.9228
rfemur -13.804 -0.00715273 22.021
rtibia 52.9249
rfoot 2.34006 -15.2611
rtoes -4.74217
lfemur -22.2435 -2.65727 -15.154
ltibia 23.1303
lfoot -5.39977 3.81132
ltoes -0.23974
516
root -24.8293 17.8185 3.08409 154.41 -82.7848 -148.851
lowerback -0.472564 -2.32294 1.38
upperback -1.9171 -3.11476 3.4412
thorax -1.58368 -1.57999 2.78793
lowerneck -11.4407 -9.79416 -11.3715
upperneck 8.05239 -12.3975 9.05312
head 5.56525 -5.89313 3.52352
rclavicle -2.02512e-014 8.34896e-015
rhumerus -12.72 9.81148 -79.063
rradius 88.2978
rwrist 16.2972
rhand -23.7862 -23.1295
rfingers 7.12502
rthumb 2.68379 -413.092
lclavicle -2.02512e-014 8.34896e-015
lhumerus -20.76 -27.5122 101.493
lradius 65.9461
lwrist -3.36775
lhand -13.2476 32.3423
lfingers 7.12502
lthumb 12.8546 61.9265
rfemur -14.7742 -0.283559 21.6983
rtibia 54.0672
rfoot 2.72849 -15.4488
rtoes -3.97625
lfemur -21.61 -2.80456 -15.6236
ltibia 23.2286
lfoot -5.71609 3.68579
ltoes 0.0661009
517
root -24.979 17.8235 3.09325 155.088 -83.034 -149.671
lowerback -0.416045 -2.44772 1.12928
upperback -1.89958 -3.27981 3.44719
thorax -1.57683 -1.6583 2.9374
lowerneck -11.3939 -9.7462 -11.3274
upperneck 7.99282 -12.3355 9.01483
head 5.52725 -5.86554 3.51531
rclavicle -2.69477e-014 3.97569e-014
rhumerus -12.3382 10.1761 -79.0628
rradius 88.8557
rwrist 16.5706
rhand -23.9815 -23.0659
rfingers 7.12502
rthumb 2.4952 -413.031
lclavicle -2.69477e-014 3.97569e-014
lhumerus -19.6553 -28.4451 101.511
lradius 66.2098
lwrist -3.07369
lhand -13.2367 32.3301
lfingers 7.12502
lthumb 12.865 61.9136
rfemur -15.7533 -0.562417 21.3886
rtibia 55.1104
rfoot 3.03852 -15.6455
rtoes -3.22554
lfemur -20.9629 -2.94915 -16.082
ltibia 23.2923
lfoot -6.04792 3.57468
ltoes 0.351195
518
root -25.128 17.8288 3.10238 155.77 -83.2792 -150.489
lowerback -0.361093 -2.57398 0.886964
upperback -1.88529 -3.44728 3.45981
thorax -1.571 -1.73809 3.08915
lowerneck -11.3465 -9.69606 -11.2823
upperneck 7.92936 -12.27 8.97352
head 5.4874 -5.83643 3.50643
rclavicle 2.98425e-014 3.57812e-014
rhumerus -11.905 10.5455 -79.0336
rradius 89.3859
rwrist 16.8393
rhand -24.1788 -23.01
rfingers 7.12502
rthumb 2.30471 -412.977
lclavicle 2.98425e-014 3.57812e-014
lhumerus -18.5086 -29.3584 101.487
lradius 66.4756
lwrist -2.77492
lhand -13.2225 32.3044
lfingers 7.12502
lthumb 12.8787 61.8871
rfemur -16.7372 -0.842971 21.0936
rtibia 56.0464
rfoot 3.26823 -15.8536
rtoes -2.49259
lfemur -20.3048 -3.09183 -16.5275
ltibia 23.3246
lfoot -6.39659 3.48165
ltoes 0.59755
519
root -25.2763 17.8341 3.11145 156.453 -83.5205 -151.298
lowerback -0.30792 -2.70115 0.654925
upperback -1.87346 -3.61633 3.47787
thorax -1.56549 -1.81894 3.24084
lowerneck -11.3027 -9.64491 -11.2326
upperneck 7.86323 -12.2028 8.92732
head 5.44658 -5.80644 3.49539
rclavicle -2.29472e-014 1.66979e-014
rhumerus -11.4199 10.9154 -78.9752
rradius 89.8897
rwrist 17.1036
rhand -24.3738 -22.96
rfingers 7.12502
rthumb 2.11631 -412.929
lclavicle -2.29472e-014 1.66979e-014
lhumerus -17.3173 -30.2526 101.417
lradius 66.7422
lwrist -2.46667
lhand -13.2089 32.2686
lfingers 7.12502
lthumb 12.8919 61.8504
rfemur -17.7209 -1.1247 20.8136
rtibia 56.8669
rfoot 3.41691 -16.0732
rtoes -1.78218
lfemur -19.6378 -3.23276 -16.9596
ltibia 23.329
lfoot -6.76327 3.40348
ltoes 0.797826
520
root -25.4239 17.8395 3.12048 157.126 -83.7559 -152.09
lowerback -0.256909 -2.82864 0.435438
upperback -1.86331 -3.7862 3.50165
thorax -1.55944 -1.90052 3.39145
lowerneck -11.263 -9.59267 -11.1778
upperneck 7.79402 -12.1335 8.87594
head 5.40471 -5.7755 3.48203
rclavicle -2.40778e-014 -3.81667e-014
rhumerus -10.8822 11.2829 -78.8872
rradius 90.367
rwrist 17.3639
rhand -24.5707 -22.921
rfingers 7.12502
rthumb 1.9262 -412.892
lclavicle -2.40778e-014 -3.81667e-014
lhumerus -16.0806 -31.1205 101.301
lradius 67.0081
lwrist -2.1578
lhand -13.1876 32.224
lfingers 7.12502
lthumb 12.9124 61.8046
rfemur -18.6985 -1.40495 20.5507
rtibia 57.5638
rfoot 3.48783 -16.3038
rtoes -1.09302
lfemur -18.9628 -3.36893 -17.3766
ltibia 23.3083
lfoot -7.14211 3.33714
ltoes 0.964331
521
root -25.5709 17.8449 3.12939 157.783 -83.9866 -152.855
lowerback -0.208699 -2.95701 0.228096
upperback -1.85649 -3.9576 3.53196
thorax -1.55412 -1.98314 3.54203
lowerneck -11.2238 -9.53849 -11.1217
upperneck 7.71993 -12.0613 8.82302
head 5.36101 -5.74312 3.46834
rclavicle -4.66274e-014 3.10104e-014
rhumerus -10.2947 11.6486 -78.7683
rradius 90.8199
rwrist 17.6186
rhand -24.7652 -22.8933
rfingers 7.12502
rthumb 1.73835 -412.866
lclavicle -4.66274e-014 3.10104e-014
lhumerus -14.8018 -31.9591 101.14
lradius 67.2729
lwrist -1.8447
lhand -13.161 32.175
lfingers 7.12502
lthumb 12.938 61.7539
rfemur -19.6673 -1.68288 20.3047
rtibia 58.1302
rfoot 3.48405 -16.5452
rtoes -0.422232
lfemur -18.2836 -3.49976 -17.7781
ltibia 23.2655
lfoot -7.52909 3.28524
ltoes 1.09111
522
root -25.7172 17.85 3.13822 158.415 -84.2118 -153.584
lowerback -0.163187 -3.08547 0.0343901
upperback -1.85284 -4.12941 3.56869
thorax -1.54964 -2.06627 3.69163
lowerneck -11.1875 -9.48387 -11.0616
upperneck 7.64318 -11.988 8.76457
head 5.31635 -5.71028 3.45232
rclavicle -1.55673e-014 1.90833e-014
rhumerus -9.65647 12.0091 -78.6175
rradius 91.2474
rwrist 17.8653
rhand -24.957 -22.876
rfingers 7.12502
rthumb 1.55307 -412.85
lclavicle -1.55673e-014 1.90833e-014
lhumerus -13.4799 -32.7666 100.934
lradius 67.5352
lwrist -1.524
lhand -13.134 32.1214
lfingers 7.12502
lthumb 12.9641 61.6987
rfemur -20.6225 -1.95623 20.0762
rtibia 58.5596
rfoot 3.40726 -16.7948
rtoes 0.226873
lfemur -17.6025 -3.62435 -18.1632
ltibia 23.202
lfoot -7.92121 3.24764
ltoes 1.17502
523
root -25.863 17.8549 3.14694 159.026 -84.4327 -154.283
lowerback -0.121362 -3.21444 -0.146734
upperback -1.85284 -4.30218 3.61171
thorax -1.54587 -2.15015 3.84063
lowerneck -11.1505 -9.42811 -11.0009
upperneck 7.56155 -11.9128 8.70479
head 5.26988 -5.67661 3.43606
rclavicle 5.63058e-014 -2.38542e-014
rhumerus -8.96977 12.3623 -78.4352
rradius 91.6501
rwrist 18.104
rhand -25.1446 -22.8632
rfingers 7.12502
rthumb 1.37192 -412.839
lclavicle 5.63058e-014 -2.38542e-014
lhumerus -12.1185 -33.5377 100.686
lradius 67.7945
lwrist -1.19832
lhand -13.1046 32.0683
lfingers 7.12502
lthumb 12.9924 61.6438
rfemur -21.5593 -2.22472 19.8635
rtibia 58.8459
rfoot 3.26137 -17.0495
rtoes 0.861841
lfemur -16.9208 -3.74271 -18.5333
ltibia 23.1185
lfoot -8.31797 3.22088
ltoes 1.21069
524
root -26.0083 17.8594 3.15553 159.627 -84.6472 -154.959
lowerback -0.0828867 -3.3427 -0.315583
upperback -1.85596 -4.47426 3.6608
thorax -1.54263 -2.23394 3.989
lowerneck -11.1162 -9.37206 -10.9384
upperneck 7.47684 -11.8367 8.64171
head 5.22259 -5.64251 3.41847
rclavicle -1.93939e-014 4.45278e-014
rhumerus -8.23449 12.7051 -78.2211
rradius 92.0273
rwrist 18.3336
rhand -25.3325 -22.8567
rfingers 7.12502
rthumb 1.19045 -412.833
lclavicle -1.93939e-014 4.45278e-014
lhumerus -10.7171 -34.2717 100.395
lradius 68.0495
lwrist -0.86626
lhand -13.075 32.0164
lfingers 7.12502
lthumb 13.0209 61.59
rfemur -22.4748 -2.48477 19.6659
rtibia 58.9865
rfoot 3.04842 -17.3047
rtoes 1.47026
lfemur -16.2397 -3.85353 -18.8882
ltibia 23.0153
lfoot -8.71918 3.20108
ltoes 1.21558
